
        <svg xmlns="http://www.w3.org/2000/svg" xmlns:xlink="http://www.w3.org/1999/xlink" version="1.1" width="140" height="40.5" viewBox="0 0 3300 876.5534077146324">
			
			<g transform="scale(15.000000000000002) translate(10, 10)">
				<defs id="SvgjsDefs2284"/><g id="SvgjsG2285" featureKey="nameFeature-0" transform="matrix(1.0676916089045114,0,0,1.0676916089045114,-2.562461490538932,-12.385225107044489)" fill="#000"><path d="M10.72 12 c8.16 0 14.16 6.2 14.16 14 s-6 14 -14.16 14 l-8.32 0 l0 -28 l8.32 0 z M10.68 36.84 c6.68 0 10.8 -4.84 10.8 -10.84 s-4.12 -10.84 -10.8 -10.84 l-4.96 0 l0 21.68 l4.96 0 z M38.32 18.84 c3.68 0 6.52 2.04 7.48 4.28 l0 -3.92 l3.28 0 l0 20.8 l-3.28 0 l0 -4 c-0.96 2.4 -3.8 4.4 -7.48 4.4 c-4.72 0 -10.44 -3.56 -10.44 -10.8 c0 -7.16 5.72 -10.76 10.44 -10.76 z M38.68 21.76 c-3.52 0 -7.6 2.6 -7.6 7.84 c0 5.28 4.08 7.88 7.6 7.88 c3.56 0 7.28 -2.52 7.28 -7.88 c0 -5.32 -3.72 -7.84 -7.28 -7.84 z M56.92 11.719999999999999 l0 2.92 l-3.28 0 l0 -2.92 l3.28 0 z M56.92 19.2 l0 20.8 l-3.28 0 l0 -20.8 l3.28 0 z M64.76 11.719999999999999 l0 28.28 l-3.28 0 l0 -28.28 l3.28 0 z M85.96000000000001 19.16 l3.28 0 l-12.64 28.44 l-3.28 0 l3.72 -8.28 l-9 -20.16 l3.28 0 l7.32 16.56 z M119.16000000000001 25.92 c0.6 8.96 -5.52 14.48 -12.8 14.48 c-7.48 0 -14.32 -5.92 -14.32 -14.4 s7 -14.4 14.32 -14.4 c3.52 0 6.72 1.2 9.24 3.32 l-2.04 2.32 c-1.96 -1.56 -4.48 -2.48 -7 -2.48 c-5.72 0 -11.08 4.64 -11.08 11.24 s5.2 11.24 10.88 11.24 c4.96 0 8.92 -2.68 9.68 -8.44 l-8.16 0 l0 -2.88 l11.28 0 z M134.28 18.88 c0.36 0 0.68 0 1 0.08 l0 3.08 c-0.32 -0.08 -0.68 -0.08 -0.96 -0.08 c-3.96 0 -7.2 2.84 -7.76 7.52 l0 10.52 l-3.28 0 l0 -20.8 l3.28 0 l0 5.48 c0.76 -3.08 3.6 -5.8 7.72 -5.8 z M142.04000000000002 11.719999999999999 l0 2.92 l-3.28 0 l0 -2.92 l3.28 0 z M142.04000000000002 19.2 l0 20.8 l-3.28 0 l0 -20.8 l3.28 0 z M157.36 18.88 c4.04 0 7.96 2.6 7.96 9.04 l0 12.08 l-3.28 0 l0 -12 c0 -4.36 -2.28 -6.24 -5.36 -6.24 c-3.72 0 -6.28 3.44 -6.8 5.96 l0 12.28 l-3.28 0 l0 -20.8 l3.28 0 l0 4.84 c0.4 -1.44 2.92 -5.16 7.48 -5.16 z M186.44000000000003 11.719999999999999 l3.28 0 l0 12.36 l0 15.92 l-3.28 0 l0 -4 c-0.96 2.4 -3.8 4.4 -7.48 4.4 c-4.72 0 -10.44 -3.56 -10.44 -10.8 c0 -7.16 5.72 -10.76 10.44 -10.76 c3.68 0 6.52 2.04 7.48 4.28 l0 -11.4 z M179.32000000000002 37.48 c3.56 0 7.28 -2.52 7.28 -7.88 c0 -5.32 -3.72 -7.84 -7.28 -7.84 c-3.52 0 -7.6 2.6 -7.6 7.84 c0 5.28 4.08 7.88 7.6 7.88 z"/></g>
			</g>
		</svg>
	